<svg width="1920" height="1080" viewBox="0 0 1920 1080" xmlns="http://www.w3.org/2000/svg">
  <defs>
    <linearGradient id="grad1" x1="0%" y1="100%" x2="100%" y2="0%">
      <stop offset="0%" style="stop-color:#6a5fb7;stop-opacity:0.35" />
      <stop offset="50%" style="stop-color:#4a3f8b;stop-opacity:0.45" />
      <stop offset="100%" style="stop-color:#5a4fa1;stop-opacity:0.35" />
    </linearGradient>
    <linearGradient id="grad2" x1="100%" y1="0%" x2="0%" y2="100%">
      <stop offset="0%" style="stop-color:#3a2f7a;stop-opacity:0.25" />
      <stop offset="50%" style="stop-color:#2a1f6a;stop-opacity:0.35" />
      <stop offset="100%" style="stop-color:#3a2f7a;stop-opacity:0.25" />
    </linearGradient>
  </defs>
  
  <!-- 背景渐变 -->
  <rect width="1920" height="1080" fill="url(#grad1)"/>
  
  <!-- 交叉绸带1 -->
  <path d="M-400 200 Q0 100 400 200 T1200 200 L1600 300 Q1200 400 800 300 T0 300 L-200 200 Z" 
        fill="url(#grad2)" opacity="0.8"/>
  
  <!-- 交叉绸带2 -->
  <path d="M-200 500 Q200 400 600 500 T1400 500 L1800 600 Q1400 700 1000 600 T200 600 L0 500 Z" 
        fill="url(#grad1)" opacity="0.7"/>
  
  <!-- 交叉绸带3 -->
  <path d="M0 800 Q400 700 800 800 T1600 800 L2000 900 Q1600 1000 1200 900 T400 900 L200 800 Z" 
        fill="url(#grad2)" opacity="0.6"/>
  
  <!-- 对角线装饰 -->
  <line x1="0" y1="0" x2="1920" y2="1080" stroke="#6a5fb7" stroke-width="1" opacity="0.4"/>
  <line x1="1920" y1="0" x2="0" y2="1080" stroke="#5a4fa1" stroke-width="1" opacity="0.4"/>
  
  <!-- 装饰性圆环 -->
  <circle cx="1600" cy="150" r="30" fill="none" stroke="#4a3f8b" stroke-width="2" opacity="0.6"/>
  <circle cx="1600" cy="150" r="20" fill="none" stroke="#3a2f7a" stroke-width="1" opacity="0.7"/>
  
  <circle cx="300" cy="900" r="25" fill="none" stroke="#5a4fa1" stroke-width="2" opacity="0.6"/>
  <circle cx="300" cy="900" r="15" fill="none" stroke="#4a3f8b" stroke-width="1" opacity="0.7"/>
</svg> 