<svg width="1920" height="1080" viewBox="0 0 1920 1080" xmlns="http://www.w3.org/2000/svg">
  <defs>
    <linearGradient id="grad1" x1="0%" y1="0%" x2="100%" y2="0%">
      <stop offset="0%" style="stop-color:#9d8df1;stop-opacity:0.12" />
      <stop offset="50%" style="stop-color:#b8a9ff;stop-opacity:0.18" />
      <stop offset="100%" style="stop-color:#a78bfa;stop-opacity:0.12" />
    </linearGradient>
    <radialGradient id="grad2" cx="50%" cy="50%" r="50%">
      <stop offset="0%" style="stop-color:#667eea;stop-opacity:0.1" />
      <stop offset="100%" style="stop-color:#764ba2;stop-opacity:0.05" />
    </radialGradient>
  </defs>
  
  <!-- 背景渐变 -->
  <rect width="1920" height="1080" fill="url(#grad2)"/>
  
  <!-- 波浪绸带1 -->
  <path d="M-300 250 Q200 150 700 250 T1700 250 L1900 350 Q1700 450 1200 350 T200 350 L0 250 Z" 
        fill="url(#grad1)" opacity="0.5"/>
  
  <!-- 波浪绸带2 -->
  <path d="M-200 550 Q300 450 800 550 T1800 550 L2000 650 Q1800 750 1300 650 T300 650 L100 550 Z" 
        fill="url(#grad1)" opacity="0.4"/>
  
  <!-- 波浪绸带3 -->
  <path d="M-100 850 Q400 750 900 850 T1900 850 L2100 950 Q1900 1050 1400 950 T400 950 L200 850 Z" 
        fill="url(#grad1)" opacity="0.3"/>
  
  <!-- 螺旋装饰 -->
  <path d="M1500 200 Q1600 150 1650 200 T1700 300 Q1650 350 1600 300 T1500 200" 
        stroke="#8b7ed8" stroke-width="2" fill="none" opacity="0.4"/>
  
  <path d="M200 700 Q300 650 350 700 T400 800 Q350 850 300 800 T200 700" 
        stroke="#9d8df1" stroke-width="2" fill="none" opacity="0.4"/>
  
  <!-- 装饰性几何图形 -->
  <polygon points="1400,100 1450,150 1400,200 1350,150" fill="#b8a9ff" opacity="0.3"/>
  <polygon points="500,800 550,850 500,900 450,850" fill="#a78bfa" opacity="0.3"/>
</svg> 