<svg width="1920" height="1080" viewBox="0 0 1920 1080" xmlns="http://www.w3.org/2000/svg">
  <defs>
    <linearGradient id="grad1" x1="0%" y1="0%" x2="100%" y2="100%">
      <stop offset="0%" style="stop-color:#4a3f8b;stop-opacity:0.25" />
      <stop offset="50%" style="stop-color:#5a4fa1;stop-opacity:0.35" />
      <stop offset="100%" style="stop-color:#6a5fb7;stop-opacity:0.25" />
    </linearGradient>
    <linearGradient id="grad2" x1="100%" y1="0%" x2="0%" y2="100%">
      <stop offset="0%" style="stop-color:#3a2f7a;stop-opacity:0.2" />
      <stop offset="50%" style="stop-color:#4a3f8a;stop-opacity:0.3" />
      <stop offset="100%" style="stop-color:#3a2f7a;stop-opacity:0.2" />
    </linearGradient>
  </defs>
  
  <!-- 背景渐变 -->
  <rect width="1920" height="1080" fill="url(#grad1)"/>
  
  <!-- 绸带1 -->
  <path d="M-200 300 Q400 200 800 300 T1600 300 L1800 400 Q1600 500 1200 400 T400 400 L200 300 Z" 
        fill="url(#grad2)" opacity="0.8"/>
  
  <!-- 绸带2 -->
  <path d="M-100 600 Q500 500 900 600 T1700 600 L1900 700 Q1700 800 1300 700 T500 700 L300 600 Z" 
        fill="url(#grad1)" opacity="0.6"/>
  
  <!-- 绸带3 -->
  <path d="M0 900 Q600 800 1000 900 T1800 900 L2000 1000 Q1800 1100 1400 1000 T600 1000 L400 900 Z" 
        fill="url(#grad2)" opacity="0.5"/>
  
  <!-- 装饰性圆点 -->
  <circle cx="300" cy="200" r="4" fill="#6a5fb7" opacity="0.6"/>
  <circle cx="1600" cy="150" r="6" fill="#5a4fa1" opacity="0.7"/>
  <circle cx="1200" cy="800" r="5" fill="#4a3f8b" opacity="0.6"/>
  <circle cx="400" cy="900" r="3" fill="#3a2f7a" opacity="0.7"/>
</svg> 