<svg width="1920" height="1080" viewBox="0 0 1920 1080" xmlns="http://www.w3.org/2000/svg">
  <defs>
    <radialGradient id="grad1" cx="30%" cy="30%" r="70%">
      <stop offset="0%" style="stop-color:#5a4fa1;stop-opacity:0.3" />
      <stop offset="50%" style="stop-color:#6a5fb7;stop-opacity:0.4" />
      <stop offset="100%" style="stop-color:#4a3f8b;stop-opacity:0.2" />
    </radialGradient>
    <linearGradient id="grad2" x1="0%" y1="0%" x2="100%" y2="100%">
      <stop offset="0%" style="stop-color:#3a2f7a;stop-opacity:0.25" />
      <stop offset="100%" style="stop-color:#2a1f6a;stop-opacity:0.35" />
    </linearGradient>
  </defs>
  
  <!-- 背景渐变 -->
  <rect width="1920" height="1080" fill="url(#grad1)"/>
  
  <!-- 螺旋绸带1 -->
  <path d="M-300 300 Q100 200 500 300 T1300 300 L1700 400 Q1300 500 900 400 T100 400 L-100 300 Z" 
        fill="url(#grad2)" opacity="0.7"/>
  
  <!-- 螺旋绸带2 -->
  <path d="M-100 600 Q300 500 700 600 T1500 600 L1900 700 Q1500 800 1100 700 T300 700 L100 600 Z" 
        fill="url(#grad2)" opacity="0.6"/>
  
  <!-- 螺旋绸带3 -->
  <path d="M100 900 Q500 800 900 900 T1700 900 L2100 1000 Q1700 1100 1300 1000 T500 1000 L300 900 Z" 
        fill="url(#grad2)" opacity="0.5"/>
  
  <!-- 装饰性网格 -->
  <g opacity="0.2">
    <line x1="0" y1="0" x2="1920" y2="0" stroke="#6a5fb7" stroke-width="1"/>
    <line x1="0" y1="200" x2="1920" y2="200" stroke="#6a5fb7" stroke-width="1"/>
    <line x1="0" y1="400" x2="1920" y2="400" stroke="#6a5fb7" stroke-width="1"/>
    <line x1="0" y1="600" x2="1920" y2="600" stroke="#6a5fb7" stroke-width="1"/>
    <line x1="0" y1="800" x2="1920" y2="800" stroke="#6a5fb7" stroke-width="1"/>
    <line x1="0" y1="1000" x2="1920" y2="1000" stroke="#6a5fb7" stroke-width="1"/>
    
    <line x1="0" y1="0" x2="0" y2="1080" stroke="#5a4fa1" stroke-width="1"/>
    <line x1="400" y1="0" x2="400" y2="1080" stroke="#5a4fa1" stroke-width="1"/>
    <line x1="800" y1="0" x2="800" y2="1080" stroke="#5a4fa1" stroke-width="1"/>
    <line x1="1200" y1="0" x2="1200" y2="1080" stroke="#5a4fa1" stroke-width="1"/>
    <line x1="1600" y1="0" x2="1600" y2="1080" stroke="#5a4fa1" stroke-width="1"/>
  </g>
  
  <!-- 装饰性星形 -->
  <polygon points="1400,100 1420,140 1460,140 1430,170 1440,210 1400,190 1360,210 1370,170 1340,140 1380,140" 
           fill="#4a3f8b" opacity="0.7"/>
  <polygon points="500,800 520,840 560,840 530,870 540,910 500,890 460,910 470,870 440,840 480,840" 
           fill="#3a2f7a" opacity="0.7"/>
</svg> 