<svg width="1920" height="1080" viewBox="0 0 1920 1080" xmlns="http://www.w3.org/2000/svg">
  <defs>
    <linearGradient id="grad1" x1="0%" y1="100%" x2="100%" y2="0%">
      <stop offset="0%" style="stop-color:#b8a9ff;stop-opacity:0.15" />
      <stop offset="50%" style="stop-color:#a78bfa;stop-opacity:0.2" />
      <stop offset="100%" style="stop-color:#8b7ed8;stop-opacity:0.15" />
    </linearGradient>
    <linearGradient id="grad2" x1="100%" y1="0%" x2="0%" y2="100%">
      <stop offset="0%" style="stop-color:#667eea;stop-opacity:0.1" />
      <stop offset="50%" style="stop-color:#764ba2;stop-opacity:0.15" />
      <stop offset="100%" style="stop-color:#667eea;stop-opacity:0.1" />
    </linearGradient>
  </defs>
  
  <!-- 背景渐变 -->
  <rect width="1920" height="1080" fill="url(#grad1)"/>
  
  <!-- 交叉绸带1 -->
  <path d="M-400 200 Q0 100 400 200 T1200 200 L1600 300 Q1200 400 800 300 T0 300 L-200 200 Z" 
        fill="url(#grad2)" opacity="0.6"/>
  
  <!-- 交叉绸带2 -->
  <path d="M-200 500 Q200 400 600 500 T1400 500 L1800 600 Q1400 700 1000 600 T200 600 L0 500 Z" 
        fill="url(#grad1)" opacity="0.5"/>
  
  <!-- 交叉绸带3 -->
  <path d="M0 800 Q400 700 800 800 T1600 800 L2000 900 Q1600 1000 1200 900 T400 900 L200 800 Z" 
        fill="url(#grad2)" opacity="0.4"/>
  
  <!-- 对角线装饰 -->
  <line x1="0" y1="0" x2="1920" y2="1080" stroke="#8b7ed8" stroke-width="1" opacity="0.2"/>
  <line x1="1920" y1="0" x2="0" y2="1080" stroke="#9d8df1" stroke-width="1" opacity="0.2"/>
  
  <!-- 装饰性圆环 -->
  <circle cx="1600" cy="150" r="30" fill="none" stroke="#b8a9ff" stroke-width="2" opacity="0.3"/>
  <circle cx="1600" cy="150" r="20" fill="none" stroke="#a78bfa" stroke-width="1" opacity="0.4"/>
  
  <circle cx="300" cy="900" r="25" fill="none" stroke="#8b7ed8" stroke-width="2" opacity="0.3"/>
  <circle cx="300" cy="900" r="15" fill="none" stroke="#9d8df1" stroke-width="1" opacity="0.4"/>
</svg> 